<svg width="770" height="764" viewBox="0 0 770 764" fill="none" xmlns="http://www.w3.org/2000/svg">
<path d="M301.5 474.055H185L96.0002 564.555C96.0002 564.555 82.5002 580.056 85.0002 600.555C87.5002 621.055 96.0002 628.555 96.0002 628.555L226 756.055C226 756.055 241 769.555 280.5 760.555C320 751.555 325.5 708.055 325.5 708.055V497.555C325.5 497.555 325.5 490.055 318.5 482.055C311.5 474.056 301.5 474.055 301.5 474.055Z" fill="#FFFFFF"/>
<path d="M347.5 318.796L190.5 477.796C190.5 477.796 124.998 481.796 62.5 428.296C0.00195312 374.796 0 307.296 0 307.296V49.7965C0 49.7965 1.9961 19.2965 39 4.79645C76.0039 -9.70361 109.5 13.2964 109.5 13.2964L347.5 252.296C347.5 252.296 357.002 263.296 357.5 283.796C357.998 304.296 347.5 318.796 347.5 318.796Z" fill="#FFFFFF"/>
<path d="M468.019 474.056H584.519L673.519 564.556C673.519 564.556 687.019 580.057 684.519 600.556C682.019 621.056 673.519 628.556 673.519 628.556L543.519 756.056C543.519 756.056 528.519 769.556 489.019 760.556C449.519 751.557 444.019 708.056 444.019 708.056V497.556C444.019 497.556 444.019 490.056 451.019 482.056C458.019 474.056 468.019 474.056 468.019 474.056Z" fill="#FFFFFF"/>
<path d="M422.017 318.797L579.017 477.797C579.017 477.797 644.519 481.797 707.017 428.297C769.516 374.797 769.518 307.297 769.518 307.297V49.7966C769.518 49.7966 767.521 19.2965 730.518 4.79646C693.514 -9.70364 660.017 13.2965 660.017 13.2965L422.017 252.297C422.017 252.297 412.515 263.297 412.017 283.797C411.519 304.297 422.017 318.797 422.017 318.797Z" fill="#FFFFFF"/>
</svg>
